<svg width="24" height="24" viewBox="0 0 24 24" fill="none" xmlns="http://www.w3.org/2000/svg">
<g id="Icon">
<mask id="mask0_125_1471" style="mask-type:alpha" maskUnits="userSpaceOnUse" x="0" y="0" width="24" height="24">
<rect id="Bounding box" width="24" height="24" fill="white"/>
</mask>
<g mask="url(#mask0_125_1471)">
<g id="Icon_2">
<path id="Vector" opacity="0.4" d="M12.0898 7.75V13" stroke="#6218FF" stroke-width="2" stroke-linecap="round" stroke-linejoin="round"/>
<path id="Vector_2" d="M21.17 8.58003V15.42C21.17 16.54 20.57 17.58 19.6 18.15L13.66 21.58C12.69 22.14 11.49 22.14 10.51 21.58L4.57001 18.15C3.60001 17.59 3 16.55 3 15.42V8.58003C3 7.46003 3.60001 6.41999 4.57001 5.84999L10.51 2.42C11.48 1.86 12.68 1.86 13.66 2.42L19.6 5.84999C20.57 6.41999 21.17 7.45003 21.17 8.58003Z" stroke="#6218FF" stroke-width="2" stroke-linecap="round" stroke-linejoin="round"/>
<path id="Vector_3" opacity="0.4" d="M12.0898 16.2002V16.3002" stroke="#6218FF" stroke-width="2" stroke-linecap="round" stroke-linejoin="round"/>
</g>
</g>
</g>
</svg>
