<svg width="18" height="18" viewBox="0 0 18 18" fill="none" xmlns="http://www.w3.org/2000/svg">
<mask id="mask0_125_8641" style="mask-type:alpha" maskUnits="userSpaceOnUse" x="0" y="0" width="18" height="18">
<rect width="18" height="18" fill="white"/>
</mask>
<g mask="url(#mask0_125_8641)">
<path d="M16.5 8.625V10.95C16.5 12.6302 16.5 13.4702 16.173 14.112C15.8854 14.6765 15.4265 15.1354 14.862 15.423C14.2202 15.75 13.3802 15.75 11.7 15.75H6.3C4.61984 15.75 3.77976 15.75 3.13803 15.423C2.57354 15.1354 2.1146 14.6765 1.82698 14.112C1.5 13.4702 1.5 12.6302 1.5 10.95V7.05C1.5 5.36984 1.5 4.52976 1.82698 3.88803C2.1146 3.32354 2.57354 2.8646 3.13803 2.57698C3.77976 2.25 4.61984 2.25 6.3 2.25H9.375M14.25 6V1.5M12 3.75H16.5M12 9C12 10.6569 10.6569 12 9 12C7.34315 12 6 10.6569 6 9C6 7.34315 7.34315 6 9 6C10.6569 6 12 7.34315 12 9Z" stroke="white" stroke-width="2" stroke-linecap="round" stroke-linejoin="round"/>
</g>
</svg>
