<svg width="20" height="20" viewBox="0 0 20 20" fill="none" xmlns="http://www.w3.org/2000/svg">
<path d="M13.9163 15.8169H6.08301C5.73301 15.8169 5.34134 15.5419 5.22468 15.2086L1.77468 5.55862C1.28301 4.17528 1.85801 3.75028 3.04134 4.60028L6.29134 6.92528C6.83301 7.30028 7.44968 7.10862 7.68301 6.50028L9.14968 2.59195C9.61634 1.34195 10.3913 1.34195 10.858 2.59195L12.3247 6.50028C12.558 7.10862 13.1747 7.30028 13.708 6.92528L16.758 4.75028C18.058 3.81695 18.683 4.29195 18.1497 5.80028L14.783 15.2253C14.658 15.5419 14.2663 15.8169 13.9163 15.8169Z" stroke="#0F0F0F" stroke-width="2" stroke-linecap="round" stroke-linejoin="round"/>
<path opacity="0.34" d="M5.41602 18.3333H14.5827" stroke="#0F0F0F" stroke-width="2" stroke-linecap="round" stroke-linejoin="round"/>
<path opacity="0.34" d="M7.91602 11.6667H12.0827" stroke="#0F0F0F" stroke-width="2" stroke-linecap="round" stroke-linejoin="round"/>
</svg>
