<svg width="137" height="100" viewBox="0 0 137 100" fill="none" xmlns="http://www.w3.org/2000/svg">
<path fill-rule="evenodd" clip-rule="evenodd" d="M62.3848 1.3268C55.7999 -2.45423 47.5898 2.29583 47.5898 9.8903C47.5898 18.6163 47.5898 28.8204 47.5898 35.7066L45.4602 38.4121C41.6502 43.2529 36.07 48.4658 30.3569 52.5211C29.0958 53.4165 28.115 54.2004 28.1777 54.2631C28.3713 54.4568 33.27 51.9815 35.6134 50.5059C40.9075 47.1723 45.1323 43.6567 54.0101 35.1963C60.6062 28.9105 62.9866 26.7906 64.9379 25.4655C68.5306 23.0252 71.2009 23.1346 72.686 25.7828C73.613 27.4357 73.8481 29.3627 73.7434 34.4492C73.6903 37.0302 73.6456 41.5316 73.6441 44.4522C73.6409 50.684 73.8644 51.7189 75.5398 53.233C76.4893 54.0907 76.6184 54.1347 77.8909 54.029C79.8207 53.8689 83.4318 51.9528 88.0871 48.6192C96.2458 42.7767 99.3611 40.9944 101.415 40.9944C102.852 40.9944 103.494 41.4506 104.029 42.851C104.575 44.2811 104.426 46.0122 103.379 50.4259C102.949 52.2346 102.583 54.3627 102.565 55.155C102.536 56.4621 102.6 56.6535 103.259 57.2216C103.932 57.801 104.125 57.839 105.852 57.7318C107.175 57.6498 108.383 57.3638 110.003 56.7493C111.259 56.2726 112.287 55.9029 112.287 55.9278C112.287 55.953 111.37 56.7525 110.249 57.7047C102.595 64.2099 98.0259 65.9833 96.5673 63.0154C96.2216 62.3115 96.1068 61.3752 96.0485 58.7776C95.95 54.4052 95.9314 54.3318 94.9202 54.3318C93.8372 54.3318 92.2111 55.3405 86.9092 59.3015C78.5487 65.5473 74.3733 68.0214 70.8811 68.7984C69.321 69.1455 68.7913 69.1667 67.7103 68.9246C66.3338 68.6166 65.9531 68.3121 65.2137 66.9282C64.7878 66.1312 64.7517 65.3907 64.7507 57.4192C64.7498 48.1487 64.6618 47.3398 63.5025 45.9618C61.3838 43.4433 57.7101 44.7126 44.5031 52.5271C31.2861 60.3472 25.1352 63.4284 18.2045 65.7007C12.4384 67.5912 9.5618 68.0397 6.22818 68.1632C3.8823 68.2501 0 67.7653 0 67.7653C0 67.7653 5.86198 69.3114 8.20367 69.6844C13.3893 70.5103 18.9952 70.0638 22.4024 69.4423C28.0098 68.4198 33.3098 66.7225 42.9024 62.8776L47.4663 61.0484C47.4928 70.742 47.5204 80.4356 47.5464 90.1292C47.5667 97.7225 55.7865 102.458 62.3624 98.6635L132.058 58.4485C138.655 54.642 138.645 45.1153 132.04 41.3228L62.3848 1.3268Z" fill="#6218FF"/>
</svg>
