<svg width="24" height="24" viewBox="0 0 24 24" fill="none" xmlns="http://www.w3.org/2000/svg">
<g id="Icon">
<mask id="mask0_125_1393" style="mask-type:alpha" maskUnits="userSpaceOnUse" x="0" y="0" width="24" height="24">
<rect id="Bounding box" width="24" height="24" fill="white"/>
</mask>
<g mask="url(#mask0_125_1393)">
<g id="Icon_2">
<path id="Vector" opacity="0.4" d="M11.8965 6.44043V9.77043" stroke="#6218FF" stroke-width="2" stroke-miterlimit="10" stroke-linecap="round"/>
<path id="Vector_2" d="M11.9174 2C8.23736 2 5.25736 4.98 5.25736 8.66V10.76C5.25736 11.44 4.97736 12.46 4.62736 13.04L3.35736 15.16C2.57736 16.47 3.11736 17.93 4.55736 18.41C9.33736 20 14.5074 20 19.2874 18.41C20.6374 17.96 21.2174 16.38 20.4874 15.16L19.2174 13.04C18.8674 12.46 18.5874 11.43 18.5874 10.76V8.66C18.5774 5 15.5774 2 11.9174 2Z" stroke="#6218FF" stroke-width="2" stroke-miterlimit="10" stroke-linecap="round"/>
<path id="Vector_3" opacity="0.4" d="M15.2264 18.8203C15.2264 20.6503 13.7264 22.1503 11.8964 22.1503C10.9864 22.1503 10.1464 21.7703 9.54641 21.1703C8.94641 20.5703 8.56641 19.7303 8.56641 18.8203" stroke="#6218FF" stroke-width="2" stroke-miterlimit="10"/>
</g>
</g>
</g>
</svg>
