<svg width="24" height="24" viewBox="0 0 24 24" fill="none" xmlns="http://www.w3.org/2000/svg">
<g id="Icon">
<mask id="mask0_125_1356" style="mask-type:alpha" maskUnits="userSpaceOnUse" x="0" y="0" width="24" height="24">
<rect id="Bounding box" width="24" height="24" fill="white"/>
</mask>
<g mask="url(#mask0_125_1356)">
<g id="Icon_2">
<path id="Vector" d="M10.4902 2.22957L5.50016 4.10957C4.35016 4.53957 3.41016 5.89957 3.41016 7.11957V14.5496C3.41016 15.7296 4.19016 17.2796 5.14016 17.9896L9.44016 21.1996C10.8502 22.2596 13.1702 22.2596 14.5802 21.1996L18.8802 17.9896C19.8302 17.2796 20.6102 15.7296 20.6102 14.5496V7.11957C20.6102 5.88957 19.6702 4.52957 18.5202 4.09957L13.5302 2.22957C12.6802 1.91957 11.3202 1.91957 10.4902 2.22957Z" stroke="#6218FF" stroke-width="2" stroke-linecap="round" stroke-linejoin="round"/>
<g id="Group 619" opacity="0.4">
<path id="Vector_2" d="M12 12.5C13.1046 12.5 14 11.6046 14 10.5C14 9.39543 13.1046 8.5 12 8.5C10.8954 8.5 10 9.39543 10 10.5C10 11.6046 10.8954 12.5 12 12.5Z" stroke="#6218FF" stroke-width="2" stroke-miterlimit="10" stroke-linecap="round" stroke-linejoin="round"/>
<path id="Vector_3" d="M12 12.5V15.5" stroke="#6218FF" stroke-width="2" stroke-miterlimit="10" stroke-linecap="round" stroke-linejoin="round"/>
</g>
</g>
</g>
</g>
</svg>
