<svg width="24" height="24" viewBox="0 0 24 24" fill="none" xmlns="http://www.w3.org/2000/svg">
<g id="Icon">
<mask id="mask0_125_8563" style="mask-type:alpha" maskUnits="userSpaceOnUse" x="0" y="0" width="24" height="24">
<rect id="Bounding box" width="24" height="24" fill="white"/>
</mask>
<g mask="url(#mask0_125_8563)">
<g id="Icon_2">
<path id="Vector" d="M19.0603 18.6703L16.9203 14.4004L14.7803 18.6703" stroke="#0F0F0F" stroke-width="2" stroke-linecap="round" stroke-linejoin="round"/>
<path id="Vector_2" d="M15.1699 17.9102H18.6899" stroke="#0F0F0F" stroke-width="2" stroke-linecap="round" stroke-linejoin="round"/>
<path id="Vector_3" d="M16.9198 21.9998C14.1198 21.9998 11.8398 19.7298 11.8398 16.9198C11.8398 14.1198 14.1098 11.8398 16.9198 11.8398C19.7198 11.8398 21.9998 14.1098 21.9998 16.9198C21.9998 19.7298 19.7298 21.9998 16.9198 21.9998Z" stroke="#0F0F0F" stroke-width="2" stroke-linecap="round" stroke-linejoin="round"/>
<path id="Vector_4" d="M5.02 2H8.94C11.01 2 12.01 3.00002 11.96 5.02002V8.94C12.01 11.01 11.01 12.01 8.94 11.96H5.02C3 12 2 11 2 8.92999V5.01001C2 3.00001 3 2 5.02 2Z" stroke="#0F0F0F" stroke-width="2" stroke-linecap="round" stroke-linejoin="round"/>
<g id="Group">
<path id="Vector_5" d="M9.00922 5.84991H4.94922" stroke="#0F0F0F" stroke-width="2" stroke-linecap="round" stroke-linejoin="round"/>
<path id="Vector_6" d="M6.96973 5.16992V5.84991" stroke="#0F0F0F" stroke-width="2" stroke-linecap="round" stroke-linejoin="round"/>
<path id="Vector_7" d="M7.98946 5.83997C7.98946 7.58997 6.61945 9.00995 4.93945 9.00995" stroke="#0F0F0F" stroke-width="2" stroke-linecap="round" stroke-linejoin="round"/>
<path id="Vector_8" d="M9.00917 9.00995C8.27917 9.00995 7.61918 8.61994 7.15918 7.99994" stroke="#0F0F0F" stroke-width="2" stroke-linecap="round" stroke-linejoin="round"/>
</g>
<path id="Vector_9" opacity="0.4" d="M2 15C2 18.87 5.13 22 9 22L7.95 20.25" stroke="#0F0F0F" stroke-width="2" stroke-linecap="round" stroke-linejoin="round"/>
<path id="Vector_10" opacity="0.4" d="M22 9C22 5.13 18.87 2 15 2L16.05 3.75" stroke="#0F0F0F" stroke-width="2" stroke-linecap="round" stroke-linejoin="round"/>
</g>
</g>
</g>
</svg>
