<svg width="24" height="24" viewBox="0 0 24 24" fill="none" xmlns="http://www.w3.org/2000/svg">
<g id="Icon">
<mask id="mask0_125_577" style="mask-type:alpha" maskUnits="userSpaceOnUse" x="0" y="0" width="24" height="24">
<path id="Bounding box" d="M24 0H0V24H24V0Z" fill="white"/>
</mask>
<g mask="url(#mask0_125_577)">
<g id="Icon_2">
<path id="Vector" d="M12 22C17.5228 22 22 17.5228 22 12C22 6.47715 17.5228 2 12 2C6.47715 2 2 6.47715 2 12C2 17.5228 6.47715 22 12 22Z" stroke="#6218FF" stroke-width="2" stroke-linecap="round" stroke-linejoin="round"/>
<g id="Group 722" opacity="0.4">
<path id="Vector_2" d="M8.00156 3H9.00156C7.05156 8.84 7.05156 15.16 9.00156 21H8.00156" stroke="#6218FF" stroke-width="2" stroke-linecap="round" stroke-linejoin="round"/>
<path id="Vector_3" d="M15 3C16.95 8.84 16.95 15.16 15 21" stroke="#6218FF" stroke-width="2" stroke-linecap="round" stroke-linejoin="round"/>
<path id="Vector_4" d="M3 16V15C8.84 16.95 15.16 16.95 21 15V16" stroke="#6218FF" stroke-width="2" stroke-linecap="round" stroke-linejoin="round"/>
<path id="Vector_5" d="M3 9.0001C8.84 7.0501 15.16 7.0501 21 9.0001" stroke="#6218FF" stroke-width="2" stroke-linecap="round" stroke-linejoin="round"/>
</g>
</g>
</g>
</g>
</svg>
